<svg width="170" height="13" viewBox="0 0 170 13" fill="none" xmlns="http://www.w3.org/2000/svg">
<path d="M0.204 11L1.692 2.6H10.248L10.032 3.812H3.048L2.652 6.044H8.544C9.128 6.044 9.548 6.2 9.804 6.512C10.06 6.824 10.136 7.272 10.032 7.856L9.768 9.392C9.664 9.976 9.468 10.392 9.18 10.64C8.892 10.88 8.456 11 7.872 11H0.204ZM1.992 9.8H7.368C7.664 9.8 7.872 9.744 7.992 9.632C8.12 9.52 8.208 9.316 8.256 9.02L8.436 8.012C8.492 7.7 8.46 7.476 8.34 7.34C8.228 7.204 8.02 7.136 7.716 7.136H2.448L1.992 9.8ZM13.0652 11C12.3052 11 11.7572 10.8 11.4212 10.4C11.0932 10 10.9972 9.416 11.1332 8.648L11.8292 4.712C11.9652 3.944 12.2212 3.4 12.5972 3.08C12.9732 2.76 13.5452 2.6 14.3132 2.6H19.6172C20.3772 2.6 20.9212 2.8 21.2492 3.2C21.5852 3.6 21.6852 4.184 21.5492 4.952L20.8532 8.888C20.7172 9.656 20.4612 10.2 20.0852 10.52C19.7092 10.84 19.1372 11 18.3692 11H13.0652ZM13.7972 9.68H17.9732C18.4132 9.68 18.7292 9.596 18.9212 9.428C19.1212 9.26 19.2572 8.956 19.3292 8.516L19.9172 5.18C19.9972 4.74 19.9532 4.42 19.7852 4.22C19.6252 4.02 19.3252 3.92 18.8852 3.92H14.7092C14.2692 3.92 13.9492 4.004 13.7492 4.172C13.5572 4.34 13.4252 4.644 13.3532 5.084L12.7652 8.42C12.6852 8.86 12.7252 9.18 12.8852 9.38C13.0532 9.58 13.3572 9.68 13.7972 9.68ZM31.2671 2.6L31.0391 3.968H24.7391L23.5031 11H21.9191L23.3951 2.6H31.2671ZM37.0745 11L36.4145 9.128H30.7985L29.4665 11H27.6665L33.8345 2.6H35.5625L38.7425 11H37.0745ZM31.6505 7.916H35.9825L34.5305 3.848L31.6505 7.916ZM47.4804 2.6L47.2404 3.968H43.4124L42.1764 11H40.5924L41.8284 3.968H38.0244L38.2644 2.6H47.4804ZM48.4381 2.6H50.0221L49.5061 5.48H54.9781C56.3861 5.48 56.9661 6.184 56.7181 7.592L56.4541 9.116C56.3261 9.828 56.0981 10.32 55.7701 10.592C55.4501 10.864 54.9381 11 54.2341 11H46.9501L48.4381 2.6ZM58.8181 2.6H60.4261L58.9381 11H57.3301L58.8181 2.6ZM49.3021 6.656L48.7621 9.776H53.7901C54.1741 9.776 54.4381 9.712 54.5821 9.584C54.7341 9.448 54.8461 9.188 54.9181 8.804L55.1221 7.724C55.1861 7.332 55.1501 7.056 55.0141 6.896C54.8781 6.736 54.6141 6.656 54.2221 6.656H49.3021ZM60.5321 11L62.0201 2.6H69.0761C70.4761 2.6 71.0521 3.304 70.8041 4.712L70.5401 6.236C70.4201 6.948 70.1961 7.44 69.8681 7.712C69.5481 7.984 69.0361 8.12 68.3321 8.12H62.6321L62.1161 11H60.5321ZM62.8361 6.944H67.8641C68.2481 6.944 68.5161 6.88 68.6681 6.752C68.8201 6.616 68.9281 6.356 68.9921 5.972L69.1961 4.892C69.2681 4.5 69.2361 4.224 69.1001 4.064C68.9641 3.904 68.7001 3.824 68.3081 3.824H63.3881L62.8361 6.944ZM73.1003 11C72.3403 11 71.7923 10.8 71.4563 10.4C71.1283 10 71.0323 9.416 71.1683 8.648L71.8643 4.712C72.0003 3.944 72.2563 3.4 72.6323 3.08C73.0083 2.76 73.5803 2.6 74.3483 2.6H79.3643C80.1243 2.6 80.6683 2.8 80.9963 3.2C81.3323 3.6 81.4323 4.184 81.2963 4.952L81.1643 5.72H79.6163L79.7243 5.156C79.8043 4.716 79.7603 4.396 79.5923 4.196C79.4243 3.996 79.1203 3.896 78.6803 3.896H74.7563C74.3163 3.896 73.9963 3.98 73.7963 4.148C73.6043 4.316 73.4683 4.62 73.3883 5.06L72.7883 8.444C72.7163 8.884 72.7603 9.204 72.9203 9.404C73.0883 9.604 73.3923 9.704 73.8323 9.704H77.7563C78.1963 9.704 78.5123 9.62 78.7043 9.452C78.9043 9.284 79.0443 8.98 79.1243 8.54L79.2563 7.772H80.7923L80.6003 8.888C80.4643 9.656 80.2083 10.2 79.8323 10.52C79.4563 10.84 78.8843 11 78.1163 11H73.1003ZM92.4022 2.6L85.9222 6.716L90.9622 11H88.5262L83.8222 6.824L83.0782 11H81.5062L82.9942 2.6H84.5662L83.8822 6.488L89.7622 2.6H92.4022ZM101.707 2.6H103.051L101.563 11H100.027L101.143 4.736L93.1869 11H91.9149L93.4029 2.6H94.9389L93.8349 8.804L101.707 2.6ZM108.111 2.024C107.823 2.024 107.611 1.948 107.475 1.796C107.347 1.636 107.311 1.412 107.367 1.124L107.475 0.536H108.555L108.483 0.956C108.427 1.204 108.531 1.328 108.795 1.328H110.715C110.955 1.328 111.099 1.208 111.147 0.968L111.219 0.536H112.299L112.191 1.172C112.143 1.476 112.039 1.696 111.879 1.832C111.727 1.96 111.495 2.024 111.183 2.024H108.111ZM112.887 2.6H114.231L112.743 11H111.207L112.323 4.736L104.367 11H103.095L104.583 2.6H106.119L105.015 8.804L112.887 2.6ZM117.872 11L119.36 2.6H128.768L127.28 11H125.696L126.944 3.968H120.704L119.456 11H117.872ZM128.817 11L130.305 2.6H137.361C138.761 2.6 139.337 3.304 139.089 4.712L138.825 6.236C138.705 6.948 138.481 7.44 138.153 7.712C137.833 7.984 137.321 8.12 136.617 8.12H130.917L130.401 11H128.817ZM131.121 6.944H136.149C136.533 6.944 136.801 6.88 136.953 6.752C137.105 6.616 137.213 6.356 137.277 5.972L137.481 4.892C137.553 4.5 137.521 4.224 137.385 4.064C137.249 3.904 136.985 3.824 136.593 3.824H131.673L131.121 6.944ZM139.142 11L139.454 9.272H141.278L140.966 11H139.142ZM142.121 12.92L143.069 11H142.517L142.817 9.272H144.641L144.497 10.076C144.425 10.508 144.277 10.896 144.053 11.24L143.153 12.92H142.121ZM154.83 9.776H158.118L157.89 11H149.154L149.382 9.776H153.282L154.314 3.944L150.714 4.232L150.93 2.96L155.382 2.6H156.102L154.83 9.776ZM163.034 3.86C162.594 3.86 162.278 3.944 162.086 4.112C161.902 4.272 161.774 4.572 161.702 5.012L161.486 6.26C161.758 5.988 162.186 5.852 162.77 5.852H167.006C167.582 5.852 167.998 6.008 168.254 6.32C168.518 6.632 168.598 7.084 168.494 7.676L168.194 9.404C168.09 9.996 167.894 10.412 167.606 10.652C167.326 10.884 166.894 11 166.31 11H160.946C160.362 11 159.942 10.844 159.686 10.532C159.43 10.22 159.354 9.768 159.458 9.176L160.238 4.712C160.366 3.944 160.618 3.4 160.994 3.08C161.378 2.76 161.954 2.6 162.722 2.6H169.034L168.806 3.86H163.034ZM162.146 7.052C161.874 7.052 161.666 7.1 161.522 7.196C161.386 7.292 161.29 7.456 161.234 7.688L161.018 8.924C160.962 9.228 160.99 9.448 161.102 9.584C161.214 9.72 161.422 9.788 161.726 9.788H165.842C166.146 9.788 166.358 9.736 166.478 9.632C166.606 9.52 166.694 9.316 166.742 9.02L166.922 7.904C166.978 7.6 166.95 7.384 166.838 7.256C166.726 7.12 166.522 7.052 166.226 7.052H162.146Z" fill="#D6D6D6"/>
</svg>
