<svg width="210" height="11" viewBox="0 0 210 11" fill="none" xmlns="http://www.w3.org/2000/svg">
<path d="M0.204 9L1.692 0.599999H11.1L9.612 9H8.028L9.276 1.968H3.036L1.788 9H0.204ZM11.1493 9L12.6373 0.599999H19.6933C21.0933 0.599999 21.6693 1.304 21.4213 2.712L21.1573 4.236C21.0373 4.948 20.8133 5.44 20.4853 5.712C20.1653 5.984 19.6533 6.12 18.9493 6.12H13.2493L12.7333 9H11.1493ZM13.4533 4.944H18.4813C18.8653 4.944 19.1333 4.88 19.2853 4.752C19.4373 4.616 19.5453 4.356 19.6093 3.972L19.8133 2.892C19.8853 2.5 19.8533 2.224 19.7173 2.064C19.5813 1.904 19.3173 1.824 18.9253 1.824H14.0053L13.4533 4.944ZM31.2655 0.599999H32.6095L31.1215 9H29.5855L30.7015 2.736L22.7455 9H21.4735L22.9615 0.599999H24.4975L23.3935 6.804L31.2655 0.599999ZM43.6692 0.599999L42.4212 7.68H43.4292L42.9492 10.44H41.4612L41.7132 9H33.5772L33.3252 10.44H31.8372L32.3172 7.68H32.8212C33.2052 7.68 33.4812 7.612 33.6492 7.476C33.8252 7.332 33.9572 7.068 34.0452 6.684L35.5092 0.599999H43.6692ZM35.6772 6.552C35.5492 7.04 35.3972 7.416 35.2212 7.68H40.8372L41.8452 1.968H36.7932L35.6772 6.552ZM46.3933 9C45.6333 9 45.0853 8.8 44.7493 8.4C44.4213 8 44.3253 7.416 44.4613 6.648L45.1573 2.712C45.2933 1.944 45.5493 1.4 45.9253 1.08C46.3013 0.76 46.8733 0.599999 47.6413 0.599999H52.9453C53.7053 0.599999 54.2493 0.799999 54.5773 1.2C54.9133 1.6 55.0133 2.184 54.8773 2.952L54.1813 6.888C54.0453 7.656 53.7893 8.2 53.4133 8.52C53.0373 8.84 52.4653 9 51.6973 9H46.3933ZM47.1253 7.68H51.3013C51.7413 7.68 52.0573 7.596 52.2493 7.428C52.4493 7.26 52.5853 6.956 52.6573 6.516L53.2453 3.18C53.3253 2.74 53.2813 2.42 53.1133 2.22C52.9533 2.02 52.6533 1.92 52.2133 1.92H48.0373C47.5973 1.92 47.2773 2.004 47.0773 2.172C46.8853 2.34 46.7533 2.644 46.6813 3.084L46.0933 6.42C46.0133 6.86 46.0533 7.18 46.2133 7.38C46.3813 7.58 46.6853 7.68 47.1253 7.68ZM55.2353 9L56.7233 0.599999H63.7793C65.1793 0.599999 65.7553 1.304 65.5073 2.712L65.2433 4.236C65.1233 4.948 64.8993 5.44 64.5713 5.712C64.2513 5.984 63.7393 6.12 63.0353 6.12H57.3353L56.8193 9H55.2353ZM57.5393 4.944H62.5673C62.9513 4.944 63.2193 4.88 63.3713 4.752C63.5233 4.616 63.6313 4.356 63.6953 3.972L63.8993 2.892C63.9713 2.5 63.9393 2.224 63.8033 2.064C63.6673 1.904 63.4033 1.824 63.0113 1.824H58.0913L57.5393 4.944ZM67.8035 9C67.0435 9 66.4955 8.8 66.1595 8.4C65.8315 8 65.7355 7.416 65.8715 6.648L66.5675 2.712C66.7035 1.944 66.9595 1.4 67.3355 1.08C67.7115 0.76 68.2835 0.599999 69.0515 0.599999H74.3555C75.1155 0.599999 75.6595 0.799999 75.9875 1.2C76.3235 1.6 76.4235 2.184 76.2875 2.952L75.5915 6.888C75.4555 7.656 75.1995 8.2 74.8235 8.52C74.4475 8.84 73.8755 9 73.1075 9H67.8035ZM68.5355 7.68H72.7115C73.1515 7.68 73.4675 7.596 73.6595 7.428C73.8595 7.26 73.9955 6.956 74.0675 6.516L74.6555 3.18C74.7355 2.74 74.6915 2.42 74.5235 2.22C74.3635 2.02 74.0635 1.92 73.6235 1.92H69.4475C69.0075 1.92 68.6875 2.004 68.4875 2.172C68.2955 2.34 68.1635 2.644 68.0915 3.084L67.5035 6.42C67.4235 6.86 67.4635 7.18 67.6235 7.38C67.7915 7.58 68.0955 7.68 68.5355 7.68ZM94.1546 0.599999L87.6866 4.716L92.7146 9H90.2906L85.5866 4.836L84.8426 9H83.2586L83.9786 4.908L77.9906 9H75.3866L81.9506 4.596L76.9226 0.599999H79.3946L84.0506 4.548L84.7466 0.599999H86.3306L85.6466 4.488L91.5146 0.599999H94.1546ZM102.807 0.599999H104.391L102.903 9H101.319L101.979 5.292H95.7393L95.0793 9H93.4953L94.9833 0.599999H96.5673L95.9793 3.924H102.219L102.807 0.599999ZM113.153 9L112.493 7.128H106.877L105.545 9H103.745L109.913 0.599999H111.641L114.821 9H113.153ZM107.729 5.916H112.061L110.609 1.848L107.729 5.916ZM118.675 0.599999H125.959L124.471 9H122.887L123.451 5.856H119.899L116.875 9H114.919L118.063 5.772L118.003 5.76C116.595 5.76 116.015 5.056 116.263 3.648L116.455 2.484C116.583 1.772 116.807 1.28 117.127 1.008C117.455 0.736 117.971 0.599999 118.675 0.599999ZM123.655 4.704L124.159 1.776H119.131C118.747 1.776 118.479 1.844 118.327 1.98C118.183 2.108 118.075 2.364 118.003 2.748L117.847 3.636C117.775 4.028 117.807 4.304 117.943 4.464C118.079 4.624 118.343 4.704 118.735 4.704H123.655ZM138.242 9L137.582 7.128H131.966L130.634 9H128.834L135.002 0.599999H136.73L139.91 9H138.242ZM132.818 5.916H137.15L135.698 1.848L132.818 5.916ZM140.101 9L140.341 7.68H140.725C141.109 7.68 141.381 7.612 141.541 7.476C141.701 7.34 141.825 7.08 141.913 6.696L143.389 0.599999H151.549L150.061 9H148.477L149.725 1.968H144.661L143.449 6.984C143.273 7.704 143.001 8.22 142.633 8.532C142.273 8.844 141.741 9 141.037 9H140.101ZM151.023 9L151.263 7.68H151.647C152.031 7.68 152.303 7.612 152.463 7.476C152.623 7.34 152.747 7.08 152.835 6.696L154.311 0.599999H162.471L160.983 9H159.399L160.647 1.968H155.583L154.371 6.984C154.195 7.704 153.923 8.22 153.555 8.532C153.195 8.844 152.663 9 151.959 9H151.023ZM172.108 1.884H165.34L164.956 4.056H171.244L171.04 5.232H164.752L164.308 7.716H171.196L170.968 9H162.52L164.008 0.599999H172.336L172.108 1.884ZM175.406 0.599999H182.69L181.202 9H179.618L180.182 5.856H176.63L173.606 9H171.65L174.794 5.772L174.734 5.76C173.326 5.76 172.746 5.056 172.994 3.648L173.186 2.484C173.314 1.772 173.538 1.28 173.858 1.008C174.186 0.736 174.702 0.599999 175.406 0.599999ZM180.386 4.704L180.89 1.776H175.862C175.478 1.776 175.21 1.844 175.058 1.98C174.914 2.108 174.806 2.364 174.734 2.748L174.578 3.636C174.506 4.028 174.538 4.304 174.674 4.464C174.81 4.624 175.074 4.704 175.466 4.704H180.386ZM182.351 10.92L183.299 9H182.747L183.047 7.272H184.871L184.727 8.076C184.655 8.508 184.507 8.896 184.283 9.24L183.383 10.92H182.351ZM195.06 7.776H198.348L198.12 9H189.384L189.612 7.776H193.512L194.544 1.944L190.944 2.232L191.16 0.96L195.612 0.599999H196.332L195.06 7.776ZM201.576 9C200.816 9 200.268 8.8 199.932 8.4C199.604 8 199.508 7.416 199.644 6.648L200.34 2.712C200.476 1.944 200.732 1.4 201.108 1.08C201.484 0.76 202.056 0.599999 202.824 0.599999H207.144C207.904 0.599999 208.448 0.799999 208.776 1.2C209.112 1.6 209.212 2.184 209.076 2.952L208.38 6.888C208.244 7.656 207.988 8.2 207.612 8.52C207.236 8.84 206.664 9 205.896 9H201.576ZM202.26 7.728H205.548C205.98 7.728 206.292 7.644 206.484 7.476C206.684 7.3 206.824 6.992 206.904 6.552L207.504 3.132C207.584 2.692 207.54 2.372 207.372 2.172C207.204 1.972 206.9 1.872 206.46 1.872H203.184C202.744 1.872 202.424 1.96 202.224 2.136C202.032 2.304 201.896 2.608 201.816 3.048L201.216 6.468C201.144 6.908 201.188 7.228 201.348 7.428C201.516 7.628 201.82 7.728 202.26 7.728Z" fill="#D6D6D6"/>
</svg>
