<svg width="160" height="12" viewBox="0 0 160 12" fill="none" xmlns="http://www.w3.org/2000/svg">
<path d="M0.272 12L2.256 0.799999H11.664C13.5307 0.799999 14.2987 1.73867 13.968 3.616L13.616 5.648C13.456 6.59733 13.1573 7.25333 12.72 7.616C12.2933 7.97867 11.6107 8.16 10.672 8.16H3.072L2.384 12H0.272ZM3.344 6.592H10.048C10.56 6.592 10.9173 6.50667 11.12 6.336C11.3227 6.15467 11.4667 5.808 11.552 5.296L11.824 3.856C11.92 3.33333 11.8773 2.96533 11.696 2.752C11.5147 2.53867 11.1627 2.432 10.64 2.432H4.08L3.344 6.592ZM24.0889 12L23.2089 9.504H15.7209L13.9449 12H11.5449L19.7689 0.799999H22.0729L26.3129 12H24.0889ZM16.8569 7.888H22.6329L20.6969 2.464L16.8569 7.888ZM29.7953 12C28.7819 12 28.0513 11.7333 27.6033 11.2C27.1659 10.6667 27.0379 9.888 27.2193 8.864L28.1473 3.616C28.3286 2.592 28.6699 1.86667 29.1713 1.44C29.6726 1.01333 30.4353 0.799999 31.4593 0.799999H38.1473C39.1606 0.799999 39.8859 1.06667 40.3233 1.6C40.7713 2.13333 40.9046 2.912 40.7233 3.936L40.5473 4.96H38.4833L38.6273 4.208C38.7339 3.62133 38.6753 3.19467 38.4513 2.928C38.2273 2.66133 37.8219 2.528 37.2353 2.528H32.0033C31.4166 2.528 30.9899 2.64 30.7233 2.864C30.4673 3.088 30.2859 3.49333 30.1793 4.08L29.3793 8.592C29.2833 9.17867 29.3419 9.60533 29.5553 9.872C29.7793 10.1387 30.1846 10.272 30.7713 10.272H36.0033C36.5899 10.272 37.0113 10.16 37.2673 9.936C37.5339 9.712 37.7206 9.30667 37.8273 8.72L38.0033 7.696H40.0513L39.7953 9.184C39.6139 10.208 39.2726 10.9333 38.7713 11.36C38.2699 11.7867 37.5073 12 36.4833 12H29.7953ZM44.139 12C43.1257 12 42.395 11.7333 41.947 11.2C41.5097 10.6667 41.3817 9.888 41.563 8.864L42.491 3.616C42.6723 2.592 43.0137 1.86667 43.515 1.44C44.0163 1.01333 44.779 0.799999 45.803 0.799999H52.491C53.5043 0.799999 54.2297 1.06667 54.667 1.6C55.115 2.13333 55.2483 2.912 55.067 3.936L54.891 4.96H52.827L52.971 4.208C53.0777 3.62133 53.019 3.19467 52.795 2.928C52.571 2.66133 52.1657 2.528 51.579 2.528H46.347C45.7603 2.528 45.3337 2.64 45.067 2.864C44.811 3.088 44.6297 3.49333 44.523 4.08L43.723 8.592C43.627 9.17867 43.6857 9.60533 43.899 9.872C44.123 10.1387 44.5283 10.272 45.115 10.272H50.347C50.9337 10.272 51.355 10.16 51.611 9.936C51.8777 9.712 52.0643 9.30667 52.171 8.72L52.347 7.696H54.395L54.139 9.184C53.9577 10.208 53.6163 10.9333 53.115 11.36C52.6137 11.7867 51.851 12 50.827 12H44.139ZM55.4908 12L57.4748 0.799999H66.8828C68.7494 0.799999 69.5174 1.73867 69.1868 3.616L68.8348 5.648C68.6748 6.59733 68.3761 7.25333 67.9388 7.616C67.5121 7.97867 66.8294 8.16 65.8908 8.16H58.2908L57.6028 12H55.4908ZM58.5628 6.592H65.2668C65.7788 6.592 66.1361 6.50667 66.3388 6.336C66.5414 6.15467 66.6854 5.808 66.7708 5.296L67.0428 3.856C67.1388 3.33333 67.0961 2.96533 66.9148 2.752C66.7334 2.53867 66.3814 2.432 65.8588 2.432H59.2988L58.5628 6.592ZM72.2484 12C71.235 12 70.5044 11.7333 70.0564 11.2C69.619 10.6667 69.491 9.888 69.6724 8.864L70.6004 3.616C70.7817 2.592 71.123 1.86667 71.6244 1.44C72.1257 1.01333 72.8884 0.799999 73.9124 0.799999H80.9844C81.9977 0.799999 82.723 1.06667 83.1604 1.6C83.6084 2.13333 83.7417 2.912 83.5604 3.936L82.6324 9.184C82.451 10.208 82.1097 10.9333 81.6084 11.36C81.107 11.7867 80.3444 12 79.3204 12H72.2484ZM73.2244 10.24H78.7924C79.379 10.24 79.8004 10.128 80.0564 9.904C80.323 9.68 80.5044 9.27467 80.6004 8.688L81.3844 4.24C81.491 3.65333 81.4324 3.22667 81.2084 2.96C80.995 2.69333 80.595 2.56 80.0084 2.56H74.4404C73.8537 2.56 73.427 2.672 73.1604 2.896C72.9044 3.12 72.7284 3.52533 72.6324 4.112L71.8484 8.56C71.7417 9.14667 71.795 9.57333 72.0084 9.84C72.2324 10.1067 72.6377 10.24 73.2244 10.24ZM93.7656 12L94.4856 7.968H87.0616C85.195 7.968 84.427 7.02933 84.7576 5.152L85.5096 0.799999H87.6216L86.9336 4.72C86.8376 5.24267 86.8803 5.61067 87.0616 5.824C87.243 6.03733 87.595 6.144 88.1176 6.144H94.8056L95.7496 0.799999H97.8616L95.8776 12H93.7656ZM112.312 0.799999L103.672 6.288L110.392 12H107.144L100.872 6.432L99.8803 12H97.7843L99.7682 0.799999H101.864L100.952 5.984L108.792 0.799999H112.312ZM123.183 12L122.303 9.504H114.815L113.039 12H110.639L118.863 0.799999H121.167L125.407 12H123.183ZM115.951 7.888H121.727L119.791 2.464L115.951 7.888ZM134.393 12C133.38 12 132.649 11.7333 132.201 11.2C131.764 10.6667 131.636 9.888 131.817 8.864L132.745 3.616C132.926 2.592 133.268 1.86667 133.769 1.44C134.27 1.01333 135.033 0.799999 136.057 0.799999H141.817C142.83 0.799999 143.556 1.06667 143.993 1.6C144.441 2.13333 144.574 2.912 144.393 3.936L143.465 9.184C143.284 10.208 142.942 10.9333 142.441 11.36C141.94 11.7867 141.177 12 140.153 12H134.393ZM135.305 10.304H139.689C140.265 10.304 140.681 10.192 140.937 9.968C141.204 9.73333 141.39 9.32267 141.497 8.736L142.297 4.176C142.404 3.58933 142.345 3.16267 142.121 2.896C141.897 2.62933 141.492 2.496 140.905 2.496H136.537C135.95 2.496 135.524 2.61333 135.257 2.848C135.001 3.072 134.82 3.47733 134.713 4.064L133.913 8.624C133.817 9.21067 133.876 9.63733 134.089 9.904C134.313 10.1707 134.718 10.304 135.305 10.304ZM151.933 5.52C151.837 6.08533 151.645 6.49067 151.357 6.736C151.069 6.98133 150.643 7.104 150.077 7.104H147.357C146.792 7.104 146.381 6.94933 146.125 6.64C145.869 6.33067 145.789 5.89333 145.885 5.328L146.173 3.664C146.269 3.088 146.461 2.68267 146.749 2.448C147.037 2.20267 147.469 2.08 148.045 2.08H150.765C151.331 2.08 151.736 2.23467 151.981 2.544C152.237 2.84267 152.317 3.28 152.221 3.856L151.933 5.52ZM146.109 12L157.789 2.08H159.277L147.581 12H146.109ZM147.837 6.048H149.837C150.136 6.048 150.349 5.98933 150.477 5.872C150.616 5.75467 150.712 5.54667 150.765 5.248L150.989 4.016C151.043 3.70667 151.011 3.48267 150.893 3.344C150.787 3.20533 150.579 3.136 150.269 3.136H148.269C147.971 3.136 147.752 3.19467 147.613 3.312C147.485 3.41867 147.395 3.62667 147.341 3.936L147.133 5.168C147.027 5.75467 147.261 6.048 147.837 6.048ZM154.605 12C154.04 12 153.629 11.8453 153.373 11.536C153.128 11.2267 153.053 10.7893 153.149 10.224L153.437 8.56C153.533 7.984 153.725 7.57867 154.013 7.344C154.301 7.09867 154.733 6.976 155.309 6.976H158.029C159.181 6.976 159.661 7.568 159.469 8.752L159.197 10.416C159.101 10.9813 158.904 11.3867 158.605 11.632C158.317 11.8773 157.891 12 157.325 12H154.605ZM155.101 10.944H157.101C157.4 10.944 157.613 10.8853 157.741 10.768C157.88 10.6507 157.976 10.4427 158.029 10.144L158.253 8.912C158.296 8.60267 158.259 8.37867 158.141 8.24C158.035 8.10133 157.832 8.032 157.533 8.032H155.533C155.224 8.032 155.005 8.09067 154.877 8.208C154.749 8.31467 154.659 8.52267 154.605 8.832L154.381 10.064C154.285 10.6507 154.525 10.944 155.101 10.944Z" fill="#ECECEC"/>
</svg>
